<?xml version="1.0" encoding="UTF-8" standalone="no"?>
<!-- Uploaded to: SVG Repo, www.svgrepo.com, Generator: SVG Repo Mixer Tools -->

<svg
   version="1.1"
   id="Layer_1"
   viewBox="0 0 512 512"
   xml:space="preserve"
   sodipodi:docname="app-icon.svg"
   inkscape:version="1.3.2 (091e20ef0f, 2023-11-25, custom)"
   xmlns:inkscape="http://www.inkscape.org/namespaces/inkscape"
   xmlns:sodipodi="http://sodipodi.sourceforge.net/DTD/sodipodi-0.dtd"
   xmlns="http://www.w3.org/2000/svg"
   xmlns:svg="http://www.w3.org/2000/svg"><defs
   id="defs10" /><sodipodi:namedview
   id="namedview10"
   pagecolor="#ffffff"
   bordercolor="#666666"
   borderopacity="1.0"
   inkscape:showpageshadow="2"
   inkscape:pageopacity="0.0"
   inkscape:pagecheckerboard="0"
   inkscape:deskcolor="#d1d1d1"
   inkscape:zoom="0.057659586"
   inkscape:cx="-1352.7673"
   inkscape:cy="1318.0809"
   inkscape:window-width="944"
   inkscape:window-height="1034"
   inkscape:window-x="0"
   inkscape:window-y="0"
   inkscape:window-maximized="1"
   inkscape:current-layer="Layer_1" />
<path
   style="fill:#b34c2e;fill-opacity:1"
   d="M387.372,512c19.74,0,35.742-16.002,35.742-35.743c0-1.231-41.265-320.563-41.265-320.563h0.057  V35.527C381.907,15.906,366,0,346.38,0H165.677c-19.62,0-35.527,15.906-35.527,35.527v120.167c0,0-41.265,319.332-41.265,320.563  c0,19.741,16.002,35.743,35.742,35.743H387.372z"
   id="path1" />
<path
   style="fill:#cf684b;fill-opacity:1"
   d="M255.999,0h-90.322c-19.62,0-35.527,15.906-35.527,35.527v120.167c0,0-41.265,319.332-41.265,320.563  c0,19.741,16.002,35.743,35.742,35.743h131.372V0z"
   id="path2" />
<path
   style="fill:#B5CDDF;"
   d="M381.905,155.694V35.527C381.905,15.906,365.999,0,346.379,0H165.677  c-19.62,0-35.527,15.906-35.527,35.527v120.167h251.698H381.905z"
   id="path3" />
<path
   style="fill:#C9E5F9;"
   d="M255.999,0h-90.322c-19.62,0-35.527,15.906-35.527,35.527v120.167h125.849V0z"
   id="path4" />
<g
   id="g6">
	<path
   style="fill:#f2f2d0;fill-opacity:1"
   d="M217.349,437.796c-0.718,13.692-12.399,24.21-26.091,23.492l0,0   c-13.692-0.718-24.21-12.399-23.492-26.091l10.85-207.044c0.718-13.692,12.399-24.21,26.091-23.492l0,0   c13.692,0.718,24.21,12.399,23.492,26.091L217.349,437.796z"
   id="path5" />
	<path
   style="fill:#f2f2d0;fill-opacity:1"
   d="M344.235,435.197c0.718,13.692-9.8,25.374-23.492,26.091l0,0   c-13.692,0.718-25.374-9.8-26.091-23.492l-10.85-207.044c-0.718-13.692,9.8-25.374,23.492-26.091l0,0   c13.692-0.718,25.374,9.8,26.091,23.492L344.235,435.197z"
   id="path6" />
</g>
<g
   id="g10">
	<rect
   x="188.76"
   y="41.752"
   style="fill:#b34c2e;fill-opacity:1"
   width="31.347"
   height="26.507"
   id="rect6" />
	<rect
   x="240.326"
   y="41.752"
   style="fill:#b34c2e;fill-opacity:1"
   width="31.347"
   height="26.507"
   id="rect7" />
	<rect
   x="291.892"
   y="41.752"
   style="fill:#b34c2e;fill-opacity:1"
   width="31.347"
   height="26.507"
   id="rect8" />
	<rect
   x="214.538"
   y="87.437"
   style="fill:#b34c2e;fill-opacity:1"
   width="31.347"
   height="26.507"
   id="rect9" />
	<rect
   x="266.114"
   y="87.437"
   style="fill:#b34c2e;fill-opacity:1"
   width="31.347"
   height="26.507"
   id="rect10" />
</g>
</svg>
