<?xml version="1.0" encoding="iso-8859-1"?>
<!-- Uploaded to: SVG Repo, www.svgrepo.com, Generator: SVG Repo Mixer Tools -->
<svg version="1.1" id="Layer_1" xmlns="http://www.w3.org/2000/svg" xmlns:xlink="http://www.w3.org/1999/xlink" 
	 viewBox="0 0 512 512" xml:space="preserve">
<path style="fill:#088690;" d="M387.372,512c19.74,0,35.742-16.002,35.742-35.743c0-1.231-41.265-320.563-41.265-320.563h0.057
	V35.527C381.907,15.906,366,0,346.38,0H165.677c-19.62,0-35.527,15.906-35.527,35.527v120.167c0,0-41.265,319.332-41.265,320.563
	c0,19.741,16.002,35.743,35.742,35.743H387.372z"/>
<path style="fill:#0BAEBC;" d="M255.999,0h-90.322c-19.62,0-35.527,15.906-35.527,35.527v120.167c0,0-41.265,319.332-41.265,320.563
	c0,19.741,16.002,35.743,35.742,35.743h131.372V0z"/>
<path style="fill:#B5CDDF;" d="M381.905,155.694V35.527C381.905,15.906,365.999,0,346.379,0H165.677
	c-19.62,0-35.527,15.906-35.527,35.527v120.167h251.698H381.905z"/>
<path style="fill:#C9E5F9;" d="M255.999,0h-90.322c-19.62,0-35.527,15.906-35.527,35.527v120.167h125.849V0z"/>
<g>
	<path style="fill:#FFFC99;" d="M217.349,437.796c-0.718,13.692-12.399,24.21-26.091,23.492l0,0
		c-13.692-0.718-24.21-12.399-23.492-26.091l10.85-207.044c0.718-13.692,12.399-24.21,26.091-23.492l0,0
		c13.692,0.718,24.21,12.399,23.492,26.091L217.349,437.796z"/>
	<path style="fill:#FFFC99;" d="M344.235,435.197c0.718,13.692-9.8,25.374-23.492,26.091l0,0
		c-13.692,0.718-25.374-9.8-26.091-23.492l-10.85-207.044c-0.718-13.692,9.8-25.374,23.492-26.091l0,0
		c13.692-0.718,25.374,9.8,26.091,23.492L344.235,435.197z"/>
</g>
<g>
	<rect x="188.76" y="41.752" style="fill:#088690;" width="31.347" height="26.507"/>
	<rect x="240.326" y="41.752" style="fill:#088690;" width="31.347" height="26.507"/>
	<rect x="291.892" y="41.752" style="fill:#088690;" width="31.347" height="26.507"/>
	<rect x="214.538" y="87.437" style="fill:#088690;" width="31.347" height="26.507"/>
	<rect x="266.114" y="87.437" style="fill:#088690;" width="31.347" height="26.507"/>
</g>
</svg>